<?xml version="1.0" encoding="UTF-8"?>
<svg width="161px" height="17px" viewBox="0 0 161 17" version="1.1" xmlns="http://www.w3.org/2000/svg" xmlns:xlink="http://www.w3.org/1999/xlink">
    <!-- Generator: Sketch 52.6 (67491) - http://www.bohemiancoding.com/sketch -->
    <title>Group 14</title>
    <desc>Created with Sketch.</desc>
    <defs>
        <path d="M0,1.42648925 L0,15.7422195 C1.1882416,14.8706575 2.71707283,14.4348766 4.5864937,14.4348766 C7.390625,14.4348766 13.0625,16.9709208 16.9296875,16.9709208 C19.5078125,16.9709208 21.1979167,16.5613537 22,15.7422195 L22,1.42648925 C20.1666667,2.25468991 18.4765625,2.66879024 16.9296875,2.66879024 C14.609375,2.66879024 7.43726942,0.0233572972 4.5864937,0.0233572972 C2.68597655,0.0233572972 1.15714532,0.49106795 0,1.42648925 Z" id="path-1"></path>
    </defs>
    <g id="Page-1" stroke="none" stroke-width="1" fill="none" fill-rule="evenodd">
        <g id="Group-9" transform="translate(-84.000000, -238.000000)">
            <g id="Group-14" transform="translate(84.000000, 238.000000)">
                <path d="M42.504,17 L36.576,2.864 L36.504,2.864 L36.504,17 L34.944,17 L34.944,0.008 L37.032,0.008 L42.912,14.144 L42.984,14.144 L42.984,0.008 L44.52,0.008 L44.52,17 L42.504,17 Z M48.408,17 L48.408,0.008 L50.088,0.008 L50.088,17 L48.408,17 Z M57.888,10.016 L57.888,17 L56.256,17 L56.256,10.016 L52.032,0.008 L53.856,0.008 L57.072,8.288 L60.36,0.008 L62.16,0.008 L57.888,10.016 Z M64.104,17 L64.104,0.008 L70.944,0.008 L70.944,1.496 L65.736,1.496 L65.736,7.472 L70.608,7.472 L70.608,8.888 L65.736,8.888 L65.736,15.488 L71.184,15.488 L71.184,17 L64.104,17 Z M81.408,17 L80.376,12.752 L75.144,12.752 L74.064,17 L72.36,17 L76.68,0.008 L78.96,0.008 L83.16,17 L81.408,17 Z M77.832,1.52 L77.736,1.52 L75.384,11.408 L80.136,11.408 L77.832,1.52 Z M89.184,10.016 L89.184,17 L87.552,17 L87.552,10.016 L83.328,0.008 L85.152,0.008 L88.368,8.288 L91.656,0.008 L93.456,0.008 L89.184,10.016 Z M107.184,17 L101.52,8.288 L101.496,8.288 L101.496,17 L99.84,17 L99.84,0.008 L101.496,0.008 L101.496,7.64 L101.52,7.64 L106.848,0.008 L108.792,0.008 L103.08,7.856 L109.2,17 L107.184,17 Z M119.592,17 L119.592,8.936 L113.088,8.936 L113.088,17 L111.408,17 L111.408,0.008 L113.088,0.008 L113.088,7.448 L119.592,7.448 L119.592,0.008 L121.272,0.008 L121.272,17 L119.592,17 Z M136.752,17 L136.752,2.24 L136.68,2.24 L132.504,17 L130.944,17 L126.792,2.24 L126.72,2.24 L126.72,17 L125.16,17 L125.16,0.008 L127.656,0.008 L131.712,14.36 L131.808,14.36 L135.816,0.008 L138.408,0.008 L138.408,17 L136.752,17 Z M142.296,17 L142.296,0.008 L149.136,0.008 L149.136,1.496 L143.928,1.496 L143.928,7.472 L148.8,7.472 L148.8,8.888 L143.928,8.888 L143.928,15.488 L149.376,15.488 L149.376,17 L142.296,17 Z M159.24,17 L156.168,9.128 L153.984,9.128 L153.984,17 L152.328,17 L152.328,0.008 L156.408,0.008 C156.968003,0.008 157.507997,0.08399924 158.028,0.236 C158.548003,0.38800076 159.011998,0.63999824 159.42,0.992 C159.828002,1.34400176 160.155999,1.80799712 160.404,2.384 C160.652001,2.96000288 160.776,3.66399584 160.776,4.496 C160.776,5.2160036 160.684001,5.8359974 160.5,6.356 C160.315999,6.8760026 160.076001,7.31199824 159.78,7.664 C159.483999,8.01600176 159.156002,8.28799904 158.796,8.48 C158.435998,8.67200096 158.080002,8.79199976 157.728,8.84 L161.04,17 L159.24,17 Z M159.144,4.568 C159.144,3.95999696 159.060001,3.45200204 158.892,3.044 C158.723999,2.63599796 158.500001,2.3120012 158.22,2.072 C157.939999,1.8319988 157.620002,1.66400048 157.26,1.568 C156.899998,1.47199952 156.528002,1.424 156.144,1.424 L153.984,1.424 L153.984,7.808 L156.216,7.808 C157.128005,7.808 157.843997,7.52400284 158.364,6.956 C158.884003,6.38799716 159.144,5.59200512 159.144,4.568 Z" id="NIYEAY-KHMER-Copy" fill="#428777"></path>
                <mask id="mask-2" fill="white">
                    <use xlink:href="#path-1"></use>
                </mask>
                <use id="Mask" fill="#428777" transform="translate(11.000000, 8.497139) scale(-1, 1) translate(-11.000000, -8.497139) " xlink:href="#path-1"></use>
                <path d="M6.28571429,10.0591169 C7.90150058,10.4090979 9.16614349,10.7141196 10.079643,10.9741822 C10.9931425,11.2342448 12.609452,11.6238031 14.9285714,12.1428571 L14.9285714,11.7593473 L13.9578813,10.2724863 L13.9578813,8.96427216 L13.1574014,7.2505186 L12.5550266,8.41708895 L11.4285954,8.16184807 L10.6698097,5.66666667 L9.76125534,7.75031991 L8.70939373,7.47840433 L8.0006666,5.88544567 L7.35553488,7.32966937 L7.35553488,8.41708895 L6.28571429,9.55830199 L6.28571429,10.0591169 Z" id="Path-4" fill="#FFFFFF" mask="url(#mask-2)" transform="translate(10.607143, 8.904762) scale(-1, 1) translate(-10.607143, -8.904762) "></path>
            </g>
        </g>
    </g>
</svg>