<?xml version="1.0" encoding="UTF-8"?>
<svg width="75px" height="57px" viewBox="0 0 75 57" version="1.1" xmlns="http://www.w3.org/2000/svg" xmlns:xlink="http://www.w3.org/1999/xlink">
    <!-- Generator: Sketch 52.6 (67491) - http://www.bohemiancoding.com/sketch -->
    <title>Group 15</title>
    <desc>Created with Sketch.</desc>
    <defs>
        <path d="M0.5,5.44588137 L0.5,52.8766405 C4.52381815,49.9889886 9.70099664,48.5451627 16.0315355,48.5451627 C25.5273437,48.5451627 44.734375,56.9475635 57.8300781,56.9475635 C66.5605469,56.9475635 72.2838542,55.5905891 75,52.8766405 L75,5.44588137 C68.7916667,8.18986895 63.0683594,9.56186274 57.8300781,9.56186274 C49.9726563,9.56186274 25.6852987,0.797036167 16.0315355,0.797036167 C9.59569333,0.797036167 4.41851483,2.34665124 0.5,5.44588137 Z" id="path-1"></path>
    </defs>
    <g id="Page-1" stroke="none" stroke-width="1" fill="none" fill-rule="evenodd">
        <g id="Group-15">
            <mask id="mask-2" fill="white">
                <use xlink:href="#path-1"></use>
            </mask>
            <use id="Mask" fill="#428777" xlink:href="#path-1"></use>
            <path d="M20.8181818,31.9160247 C26.2898218,33.0755787 30.5723625,34.0861743 33.6658041,34.9478116 C36.7592456,35.8094488 42.2326573,37.1001302 50.086039,38.8198556 L50.086039,37.5492141 L46.7989291,32.6229584 L46.7989291,28.2885941 L44.0882133,22.6106 L42.048353,26.4756712 L38.2338476,25.6300093 L35.6643231,17.3629949 L32.5876277,24.2665376 L29.0256417,23.3656291 L26.625634,18.0878516 L24.4409834,22.8728417 L24.4409834,26.4756712 L20.8181818,30.2567288 L20.8181818,31.9160247 Z" id="Path-4" fill="#FFFFFF" mask="url(#mask-2)"></path>
        </g>
    </g>
</svg>