<?xml version="1.0" encoding="UTF-8"?>
<svg width="343px" height="22px" viewBox="0 0 343 22" version="1.1" xmlns="http://www.w3.org/2000/svg" xmlns:xlink="http://www.w3.org/1999/xlink">
    <!-- Generator: Sketch 52.6 (67491) - http://www.bohemiancoding.com/sketch -->
    <title>KHMER LANGUAGE REFER Copy</title>
    <desc>Created with Sketch.</desc>
    <g id="Page-1" stroke="none" stroke-width="1" fill="none" fill-rule="evenodd">
        <g id="Group-9" transform="translate(-889.000000, -6.000000)" fill="#428777">
            <path d="M896.624,24 L890.96,15.288 L890.936,15.288 L890.936,24 L889.28,24 L889.28,7.008 L890.936,7.008 L890.936,14.64 L890.96,14.64 L896.288,7.008 L898.232,7.008 L892.52,14.856 L898.64,24 L896.624,24 Z M909.032,24 L909.032,15.936 L902.528,15.936 L902.528,24 L900.848,24 L900.848,7.008 L902.528,7.008 L902.528,14.448 L909.032,14.448 L909.032,7.008 L910.712,7.008 L910.712,24 L909.032,24 Z M926.192,24 L926.192,9.24 L926.12,9.24 L921.944,24 L920.384,24 L916.232,9.24 L916.16,9.24 L916.16,24 L914.6,24 L914.6,7.008 L917.096,7.008 L921.152,21.36 L921.248,21.36 L925.256,7.008 L927.848,7.008 L927.848,24 L926.192,24 Z M931.736,24 L931.736,7.008 L938.576,7.008 L938.576,8.496 L933.368,8.496 L933.368,14.472 L938.24,14.472 L938.24,15.888 L933.368,15.888 L933.368,22.488 L938.816,22.488 L938.816,24 L931.736,24 Z M948.68,24 L945.608,16.128 L943.424,16.128 L943.424,24 L941.768,24 L941.768,7.008 L945.848,7.008 C946.408003,7.008 946.947997,7.08399924 947.468,7.236 C947.988003,7.38800076 948.451998,7.63999824 948.86,7.992 C949.268002,8.34400176 949.595999,8.80799712 949.844,9.384 C950.092001,9.96000288 950.216,10.6639958 950.216,11.496 C950.216,12.2160036 950.124001,12.8359974 949.94,13.356 C949.755999,13.8760026 949.516001,14.3119982 949.22,14.664 C948.923999,15.0160018 948.596002,15.287999 948.236,15.48 C947.875998,15.672001 947.520002,15.7919998 947.168,15.84 L950.48,24 L948.68,24 Z M948.584,11.568 C948.584,10.959997 948.500001,10.452002 948.332,10.044 C948.163999,9.63599796 947.940001,9.3120012 947.66,9.072 C947.379999,8.8319988 947.060002,8.66400048 946.7,8.568 C946.339998,8.47199952 945.968002,8.424 945.584,8.424 L943.424,8.424 L943.424,14.808 L945.656,14.808 C946.568005,14.808 947.283997,14.5240028 947.804,13.956 C948.324003,13.3879972 948.584,12.5920051 948.584,11.568 Z M957.632,24 L957.632,7.008 L959.312,7.008 L959.312,22.44 L964.16,22.44 L964.16,24 L957.632,24 Z M973.472,24 L972.44,19.752 L967.208,19.752 L966.128,24 L964.424,24 L968.744,7.008 L971.024,7.008 L975.224,24 L973.472,24 Z M969.896,8.52 L969.8,8.52 L967.448,18.408 L972.2,18.408 L969.896,8.52 Z M984.896,24 L978.968,9.864 L978.896,9.864 L978.896,24 L977.336,24 L977.336,7.008 L979.424,7.008 L985.304,21.144 L985.376,21.144 L985.376,7.008 L986.912,7.008 L986.912,24 L984.896,24 Z M1000.112,22.944 C999.647998,23.3600021 999.084003,23.6919988 998.42,23.94 C997.755997,24.1880012 996.976004,24.312 996.08,24.312 C995.135995,24.312 994.288004,24.1040021 993.536,23.688 C992.783996,23.2719979 992.152003,22.6800038 991.64,21.912 C991.127997,21.1439962 990.736001,20.2160054 990.464,19.128 C990.191999,18.0399946 990.056,16.8240067 990.056,15.48 C990.056,14.2159937 990.187999,13.0400054 990.452,11.952 C990.716001,10.8639946 991.095998,9.92400396 991.592,9.132 C992.088002,8.33999604 992.695996,7.72000224 993.416,7.272 C994.136004,6.82399776 994.951995,6.6 995.864,6.6 C996.696004,6.6 997.455997,6.76799832 998.144,7.104 C998.832003,7.44000168 999.407998,7.9679964 999.872,8.688 L998.792,9.792 C998.423998,9.2319972 997.996002,8.8120014 997.508,8.532 C997.019998,8.2519986 996.496003,8.112 995.936,8.112 C995.231996,8.112 994.624003,8.30799804 994.112,8.7 C993.599997,9.09200196 993.172002,9.62399664 992.828,10.296 C992.483998,10.9680034 992.228001,11.7479956 992.06,12.636 C991.891999,13.5240044 991.808,14.471995 991.808,15.48 C991.808,16.5360053 991.895999,17.5119955 992.072,18.408 C992.248001,19.3040045 992.515998,20.0759968 992.876,20.724 C993.236002,21.3720032 993.683997,21.8799982 994.22,22.248 C994.756003,22.6160018 995.375996,22.8 996.08,22.8 C996.592003,22.8 997.051998,22.7360006 997.46,22.608 C997.868002,22.4799994 998.207999,22.2960012 998.48,22.056 L998.48,16.296 L996.056,16.296 L996.056,14.832 L1000.112,14.832 L1000.112,22.944 Z M1013.144,18.048 C1013.144,18.9280044 1013.06,19.7559961 1012.892,20.532 C1012.724,21.3080039 1012.452,21.9839971 1012.076,22.56 C1011.7,23.1360029 1011.2,23.5879984 1010.576,23.916 C1009.952,24.2440016 1009.184,24.408 1008.272,24.408 C1007.36,24.408 1006.596,24.2440016 1005.98,23.916 C1005.364,23.5879984 1004.868,23.1360029 1004.492,22.56 C1004.116,21.9839971 1003.848,21.3080039 1003.688,20.532 C1003.528,19.7559961 1003.448,18.9280044 1003.448,18.048 L1003.448,7.008 L1005.128,7.008 L1005.128,17.832 C1005.128,18.4560031 1005.172,19.071997 1005.26,19.68 C1005.348,20.288003 1005.508,20.8279976 1005.74,21.3 C1005.972,21.7720024 1006.292,22.1519986 1006.7,22.44 C1007.108,22.7280014 1007.64,22.872 1008.296,22.872 C1008.936,22.872 1009.464,22.7280014 1009.88,22.44 C1010.296,22.1519986 1010.62,21.7720024 1010.852,21.3 C1011.084,20.8279976 1011.244,20.292003 1011.332,19.692 C1011.42,19.091997 1011.464,18.4720032 1011.464,17.832 L1011.464,7.008 L1013.144,7.008 L1013.144,18.048 Z M1024.112,24 L1023.08,19.752 L1017.848,19.752 L1016.768,24 L1015.064,24 L1019.384,7.008 L1021.664,7.008 L1025.864,24 L1024.112,24 Z M1020.536,8.52 L1020.44,8.52 L1018.088,18.408 L1022.84,18.408 L1020.536,8.52 Z M1037.288,22.944 C1036.824,23.3600021 1036.26,23.6919988 1035.596,23.94 C1034.932,24.1880012 1034.152,24.312 1033.256,24.312 C1032.312,24.312 1031.464,24.1040021 1030.712,23.688 C1029.96,23.2719979 1029.328,22.6800038 1028.816,21.912 C1028.304,21.1439962 1027.912,20.2160054 1027.64,19.128 C1027.368,18.0399946 1027.232,16.8240067 1027.232,15.48 C1027.232,14.2159937 1027.364,13.0400054 1027.628,11.952 C1027.892,10.8639946 1028.272,9.92400396 1028.768,9.132 C1029.264,8.33999604 1029.872,7.72000224 1030.592,7.272 C1031.312,6.82399776 1032.128,6.6 1033.04,6.6 C1033.872,6.6 1034.632,6.76799832 1035.32,7.104 C1036.008,7.44000168 1036.584,7.9679964 1037.048,8.688 L1035.968,9.792 C1035.6,9.2319972 1035.172,8.8120014 1034.684,8.532 C1034.196,8.2519986 1033.672,8.112 1033.112,8.112 C1032.408,8.112 1031.8,8.30799804 1031.288,8.7 C1030.776,9.09200196 1030.348,9.62399664 1030.004,10.296 C1029.66,10.9680034 1029.404,11.7479956 1029.236,12.636 C1029.068,13.5240044 1028.984,14.471995 1028.984,15.48 C1028.984,16.5360053 1029.072,17.5119955 1029.248,18.408 C1029.424,19.3040045 1029.692,20.0759968 1030.052,20.724 C1030.412,21.3720032 1030.86,21.8799982 1031.396,22.248 C1031.932,22.6160018 1032.552,22.8 1033.256,22.8 C1033.768,22.8 1034.228,22.7360006 1034.636,22.608 C1035.044,22.4799994 1035.384,22.2960012 1035.656,22.056 L1035.656,16.296 L1033.232,16.296 L1033.232,14.832 L1037.288,14.832 L1037.288,22.944 Z M1040.816,24 L1040.816,7.008 L1047.656,7.008 L1047.656,8.496 L1042.448,8.496 L1042.448,14.472 L1047.32,14.472 L1047.32,15.888 L1042.448,15.888 L1042.448,22.488 L1047.896,22.488 L1047.896,24 L1040.816,24 Z M1062.2,24 L1059.128,16.128 L1056.944,16.128 L1056.944,24 L1055.288,24 L1055.288,7.008 L1059.368,7.008 C1059.928,7.008 1060.468,7.08399924 1060.988,7.236 C1061.508,7.38800076 1061.972,7.63999824 1062.38,7.992 C1062.788,8.34400176 1063.116,8.80799712 1063.364,9.384 C1063.612,9.96000288 1063.736,10.6639958 1063.736,11.496 C1063.736,12.2160036 1063.644,12.8359974 1063.46,13.356 C1063.276,13.8760026 1063.036,14.3119982 1062.74,14.664 C1062.444,15.0160018 1062.116,15.287999 1061.756,15.48 C1061.396,15.672001 1061.04,15.7919998 1060.688,15.84 L1064,24 L1062.2,24 Z M1062.104,11.568 C1062.104,10.959997 1062.02,10.452002 1061.852,10.044 C1061.684,9.63599796 1061.46,9.3120012 1061.18,9.072 C1060.9,8.8319988 1060.58,8.66400048 1060.22,8.568 C1059.86,8.47199952 1059.488,8.424 1059.104,8.424 L1056.944,8.424 L1056.944,14.808 L1059.176,14.808 C1060.088,14.808 1060.804,14.5240028 1061.324,13.956 C1061.844,13.3879972 1062.104,12.5920051 1062.104,11.568 Z M1066.712,24 L1066.712,7.008 L1073.552,7.008 L1073.552,8.496 L1068.344,8.496 L1068.344,14.472 L1073.216,14.472 L1073.216,15.888 L1068.344,15.888 L1068.344,22.488 L1073.792,22.488 L1073.792,24 L1066.712,24 Z M1078.4,8.52 L1078.4,14.592 L1083.176,14.592 L1083.176,16.056 L1078.4,16.056 L1078.4,24 L1076.744,24 L1076.744,7.008 L1083.536,7.008 L1083.536,8.52 L1078.4,8.52 Z M1086.248,24 L1086.248,7.008 L1093.088,7.008 L1093.088,8.496 L1087.88,8.496 L1087.88,14.472 L1092.752,14.472 L1092.752,15.888 L1087.88,15.888 L1087.88,22.488 L1093.328,22.488 L1093.328,24 L1086.248,24 Z M1103.192,24 L1100.12,16.128 L1097.936,16.128 L1097.936,24 L1096.28,24 L1096.28,7.008 L1100.36,7.008 C1100.92,7.008 1101.46,7.08399924 1101.98,7.236 C1102.5,7.38800076 1102.964,7.63999824 1103.372,7.992 C1103.78,8.34400176 1104.108,8.80799712 1104.356,9.384 C1104.604,9.96000288 1104.728,10.6639958 1104.728,11.496 C1104.728,12.2160036 1104.636,12.8359974 1104.452,13.356 C1104.268,13.8760026 1104.028,14.3119982 1103.732,14.664 C1103.436,15.0160018 1103.108,15.287999 1102.748,15.48 C1102.388,15.672001 1102.032,15.7919998 1101.68,15.84 L1104.992,24 L1103.192,24 Z M1103.096,11.568 C1103.096,10.959997 1103.012,10.452002 1102.844,10.044 C1102.676,9.63599796 1102.452,9.3120012 1102.172,9.072 C1101.892,8.8319988 1101.572,8.66400048 1101.212,8.568 C1100.852,8.47199952 1100.48,8.424 1100.096,8.424 L1097.936,8.424 L1097.936,14.808 L1100.168,14.808 C1101.08,14.808 1101.796,14.5240028 1102.316,13.956 C1102.836,13.3879972 1103.096,12.5920051 1103.096,11.568 Z M1107.704,24 L1107.704,7.008 L1114.544,7.008 L1114.544,8.496 L1109.336,8.496 L1109.336,14.472 L1114.208,14.472 L1114.208,15.888 L1109.336,15.888 L1109.336,22.488 L1114.784,22.488 L1114.784,24 L1107.704,24 Z M1125.296,24 L1119.368,9.864 L1119.296,9.864 L1119.296,24 L1117.736,24 L1117.736,7.008 L1119.824,7.008 L1125.704,21.144 L1125.776,21.144 L1125.776,7.008 L1127.312,7.008 L1127.312,24 L1125.296,24 Z M1140.32,22.08 C1139.872,22.8320038 1139.304,23.407998 1138.616,23.808 C1137.928,24.208002 1137.152,24.408 1136.288,24.408 C1135.36,24.408 1134.536,24.1800023 1133.816,23.724 C1133.096,23.2679977 1132.488,22.644004 1131.992,21.852 C1131.496,21.059996 1131.116,20.1200054 1130.852,19.032 C1130.588,17.9439946 1130.456,16.7680063 1130.456,15.504 C1130.456,14.2239936 1130.588,13.0400054 1130.852,11.952 C1131.116,10.8639946 1131.5,9.92400396 1132.004,9.132 C1132.508,8.33999604 1133.12,7.72000224 1133.84,7.272 C1134.56,6.82399776 1135.376,6.6 1136.288,6.6 C1137.088,6.6 1137.836,6.76799832 1138.532,7.104 C1139.228,7.44000168 1139.808,7.9679964 1140.272,8.688 L1139.192,9.792 C1138.824,9.2319972 1138.396,8.81600136 1137.908,8.544 C1137.42,8.27199864 1136.904,8.136 1136.36,8.136 C1135.656,8.136 1135.044,8.32799808 1134.524,8.712 C1134.004,9.09600192 1133.572,9.62399664 1133.228,10.296 C1132.884,10.9680034 1132.628,11.7519955 1132.46,12.648 C1132.292,13.5440045 1132.208,14.495995 1132.208,15.504 C1132.208,16.512005 1132.296,17.4599956 1132.472,18.348 C1132.648,19.2360044 1132.908,20.0159966 1133.252,20.688 C1133.596,21.3600034 1134.028,21.891998 1134.548,22.284 C1135.068,22.676002 1135.68,22.872 1136.384,22.872 C1136.992,22.872 1137.544,22.7000017 1138.04,22.356 C1138.536,22.0119983 1138.944,21.5600028 1139.264,21 L1140.32,22.08 Z M1142.696,24 L1142.696,7.008 L1149.536,7.008 L1149.536,8.496 L1144.328,8.496 L1144.328,14.472 L1149.2,14.472 L1149.2,15.888 L1144.328,15.888 L1144.328,22.488 L1149.776,22.488 L1149.776,24 L1142.696,24 Z M1156.184,27.744 L1156.184,6.432 L1159.976,6.432 L1159.976,7.728 L1157.744,7.728 L1157.744,26.448 L1159.976,26.448 L1159.976,27.744 L1156.184,27.744 Z M1173.68,15.48 C1173.68,16.8080066 1173.552,18.0199945 1173.296,19.116 C1173.04,20.2120055 1172.672,21.1519961 1172.192,21.936 C1171.712,22.7200039 1171.128,23.3279978 1170.44,23.76 C1169.752,24.1920022 1168.968,24.408 1168.088,24.408 C1167.208,24.408 1166.42,24.1920022 1165.724,23.76 C1165.028,23.3279978 1164.436,22.7200039 1163.948,21.936 C1163.46,21.1519961 1163.088,20.2120055 1162.832,19.116 C1162.576,18.0199945 1162.448,16.8080066 1162.448,15.48 C1162.448,14.1679934 1162.572,12.9640055 1162.82,11.868 C1163.068,10.7719945 1163.432,9.83600388 1163.912,9.06 C1164.392,8.28399612 1164.98,7.68000216 1165.676,7.248 C1166.372,6.81599784 1167.176,6.6 1168.088,6.6 C1168.968,6.6 1169.752,6.81599784 1170.44,7.248 C1171.128,7.68000216 1171.712,8.28399612 1172.192,9.06 C1172.672,9.83600388 1173.04,10.7719945 1173.296,11.868 C1173.552,12.9640055 1173.68,14.1679934 1173.68,15.48 Z M1171.928,15.48 C1171.928,14.4559949 1171.848,13.4960045 1171.688,12.6 C1171.528,11.7039955 1171.284,10.9280033 1170.956,10.272 C1170.628,9.61599672 1170.224,9.09600192 1169.744,8.712 C1169.264,8.32799808 1168.712,8.136 1168.088,8.136 C1167.432,8.136 1166.86,8.32799808 1166.372,8.712 C1165.884,9.09600192 1165.48,9.61599672 1165.16,10.272 C1164.84,10.9280033 1164.6,11.7039955 1164.44,12.6 C1164.28,13.4960045 1164.2,14.4559949 1164.2,15.48 C1164.2,16.5040051 1164.28,17.4639955 1164.44,18.36 C1164.6,19.2560045 1164.84,20.0399966 1165.16,20.712 C1165.48,21.3840034 1165.884,21.9119981 1166.372,22.296 C1166.86,22.6800019 1167.432,22.872 1168.088,22.872 C1168.728,22.872 1169.288,22.6800019 1169.768,22.296 C1170.248,21.9119981 1170.648,21.3840034 1170.968,20.712 C1171.288,20.0399966 1171.528,19.2560045 1171.688,18.36 C1171.848,17.4639955 1171.928,16.5040051 1171.928,15.48 Z M1184.408,24 L1178.48,9.864 L1178.408,9.864 L1178.408,24 L1176.848,24 L1176.848,7.008 L1178.936,7.008 L1184.816,21.144 L1184.888,21.144 L1184.888,7.008 L1186.424,7.008 L1186.424,24 L1184.408,24 Z M1190.312,24 L1190.312,7.008 L1191.992,7.008 L1191.992,22.44 L1196.84,22.44 L1196.84,24 L1190.312,24 Z M1198.88,24 L1198.88,7.008 L1200.56,7.008 L1200.56,24 L1198.88,24 Z M1212.008,24 L1206.08,9.864 L1206.008,9.864 L1206.008,24 L1204.448,24 L1204.448,7.008 L1206.536,7.008 L1212.416,21.144 L1212.488,21.144 L1212.488,7.008 L1214.024,7.008 L1214.024,24 L1212.008,24 Z M1217.912,24 L1217.912,7.008 L1224.752,7.008 L1224.752,8.496 L1219.544,8.496 L1219.544,14.472 L1224.416,14.472 L1224.416,15.888 L1219.544,15.888 L1219.544,22.488 L1224.992,22.488 L1224.992,24 L1217.912,24 Z M1227.248,26.448 L1229.48,26.448 L1229.48,7.728 L1227.248,7.728 L1227.248,6.432 L1231.04,6.432 L1231.04,27.744 L1227.248,27.744 L1227.248,26.448 Z" id="KHMER-LANGUAGE-REFER-Copy"></path>
        </g>
    </g>
</svg>